<?xml version="1.0" standalone="no"?>
<!DOCTYPE svg PUBLIC "-//W3C//DTD SVG 20010904//EN"
 "http://www.w3.org/TR/2001/REC-SVG-20010904/DTD/svg10.dtd">
<svg version="1.0" xmlns="http://www.w3.org/2000/svg"
 width="512.000000pt" height="512.000000pt" viewBox="0 0 512.000000 512.000000"
 preserveAspectRatio="xMidYMid meet">
<metadata>
Created by potrace 1.14, written by Peter Selinger 2001-2017
</metadata>
<g transform="translate(0.000000,512.000000) scale(0.100000,-0.100000)"
fill="#000000" stroke="none">
<path d="M1354 3707 c-3 -8 -3 -56 -2 -108 l3 -94 198 -3 197 -2 0 -258 c0
-141 3 -551 7 -909 l6 -653 117 0 117 0 6 653 c4 358 7 768 7 910 l0 257 209
0 c181 0 210 2 215 16 8 20 8 168 0 188 -6 14 -62 16 -540 16 -435 0 -536 -2
-540 -13z"/>
<path d="M2702 2703 l3 -1018 118 -3 117 -3 0 429 0 429 228 6 c229 7 277 14
353 53 139 70 234 201 269 367 17 83 15 259 -4 341 -47 202 -174 336 -373 393
-47 13 -118 17 -386 21 l-327 4 2 -1019z m661 770 c79 -37 123 -78 158 -149
28 -56 33 -78 37 -163 9 -182 -34 -284 -151 -357 -64 -41 -137 -54 -304 -54
l-153 0 0 376 0 376 183 -4 c163 -3 187 -5 230 -25z"/>
</g>
</svg>
